<mxfile>
    <diagram id="AhWlzKmKPv5T9BWCtDrj" name="Page-1">
        <mxGraphModel dx="1269" dy="734" grid="1" gridSize="10" guides="1" tooltips="1" connect="1" arrows="1" fold="1" page="1" pageScale="1" pageWidth="850" pageHeight="1100" math="0" shadow="0">
            <root>
                <mxCell id="0"/>
                <mxCell id="1" parent="0"/>
                <mxCell id="17" value="" style="group;fontColor=#000000;labelBackgroundColor=none;" parent="1" vertex="1" connectable="0">
                    <mxGeometry x="50" y="55.71" width="130" height="189.29" as="geometry"/>
                </mxCell>
                <mxCell id="16" value="1. 初始化树" style="text;html=1;align=center;verticalAlign=middle;resizable=0;points=[];autosize=1;fontSize=14;sketch=1;fontColor=#000000;labelBackgroundColor=none;" parent="17" vertex="1">
                    <mxGeometry x="-5" y="169.29" width="90" height="20" as="geometry"/>
                </mxCell>
                <mxCell id="2" value="x" style="ellipse;whiteSpace=wrap;html=1;aspect=fixed;sketch=1;fillColor=#1ba1e2;strokeColor=#006EAF;fontSize=20;fontColor=#000000;labelBackgroundColor=none;" parent="17" vertex="1">
                    <mxGeometry x="10" y="20.000000000000007" width="40" height="40" as="geometry"/>
                </mxCell>
                <mxCell id="4" value="" style="endArrow=none;html=1;exitX=0.5;exitY=0;exitDx=0;exitDy=0;sketch=1;fontColor=#000000;labelBackgroundColor=none;fillColor=#1ba1e2;strokeColor=#006EAF;" parent="17" source="2" edge="1">
                    <mxGeometry width="50" height="50" as="geometry">
                        <mxPoint x="20" y="10.000000000000007" as="sourcePoint"/>
                        <mxPoint x="30" as="targetPoint"/>
                    </mxGeometry>
                </mxCell>
                <mxCell id="5" value="p" style="edgeLabel;html=1;align=center;verticalAlign=middle;resizable=0;points=[];fontColor=#000000;labelBackgroundColor=none;" parent="4" vertex="1" connectable="0">
                    <mxGeometry x="-0.0067" y="-1" relative="1" as="geometry">
                        <mxPoint x="-1" y="-26" as="offset"/>
                    </mxGeometry>
                </mxCell>
                <mxCell id="6" value="" style="endArrow=none;html=1;exitX=0;exitY=1;exitDx=0;exitDy=0;sketch=1;fontColor=#000000;labelBackgroundColor=none;fillColor=#1ba1e2;strokeColor=#006EAF;" parent="17" source="2" edge="1">
                    <mxGeometry width="50" height="50" as="geometry">
                        <mxPoint x="-50" y="80" as="sourcePoint"/>
                        <mxPoint y="70" as="targetPoint"/>
                    </mxGeometry>
                </mxCell>
                <mxCell id="7" value="α" style="edgeLabel;html=1;align=center;verticalAlign=middle;resizable=0;points=[];fontColor=#000000;labelBackgroundColor=none;" parent="6" vertex="1" connectable="0">
                    <mxGeometry x="-0.0067" y="-1" relative="1" as="geometry">
                        <mxPoint x="-17.47" y="18.89" as="offset"/>
                    </mxGeometry>
                </mxCell>
                <mxCell id="8" value="" style="endArrow=none;html=1;exitX=1;exitY=1;exitDx=0;exitDy=0;sketch=1;entryX=0;entryY=0;entryDx=0;entryDy=0;fontColor=#000000;labelBackgroundColor=none;fillColor=#1ba1e2;strokeColor=#006EAF;" parent="17" source="2" target="10" edge="1">
                    <mxGeometry width="50" height="50" as="geometry">
                        <mxPoint x="95.85786437626905" y="64.14213562373095" as="sourcePoint"/>
                        <mxPoint x="70" y="80" as="targetPoint"/>
                    </mxGeometry>
                </mxCell>
                <mxCell id="10" value="y" style="ellipse;whiteSpace=wrap;html=1;aspect=fixed;sketch=1;fillColor=#1ba1e2;strokeColor=#006EAF;fontSize=20;fontColor=#000000;labelBackgroundColor=none;" parent="17" vertex="1">
                    <mxGeometry x="70" y="80" width="40" height="40" as="geometry"/>
                </mxCell>
                <mxCell id="11" value="" style="endArrow=none;html=1;exitX=0;exitY=1;exitDx=0;exitDy=0;sketch=1;fontColor=#000000;labelBackgroundColor=none;fillColor=#1ba1e2;strokeColor=#006EAF;" parent="17" source="10" edge="1">
                    <mxGeometry width="50" height="50" as="geometry">
                        <mxPoint x="69.99786437626904" y="120.00213562373096" as="sourcePoint"/>
                        <mxPoint x="50" y="140" as="targetPoint"/>
                    </mxGeometry>
                </mxCell>
                <mxCell id="12" value="β" style="edgeLabel;html=1;align=center;verticalAlign=middle;resizable=0;points=[];fontColor=#000000;labelBackgroundColor=none;" parent="11" vertex="1" connectable="0">
                    <mxGeometry x="-0.0067" y="-1" relative="1" as="geometry">
                        <mxPoint x="-17.47" y="18.89" as="offset"/>
                    </mxGeometry>
                </mxCell>
                <mxCell id="13" value="" style="endArrow=none;html=1;exitX=1;exitY=1;exitDx=0;exitDy=0;sketch=1;fontColor=#000000;labelBackgroundColor=none;fillColor=#1ba1e2;strokeColor=#006EAF;" parent="17" source="10" edge="1">
                    <mxGeometry width="50" height="50" as="geometry">
                        <mxPoint x="175.85786437626905" y="140.00213562373096" as="sourcePoint"/>
                        <mxPoint x="130" y="140" as="targetPoint"/>
                    </mxGeometry>
                </mxCell>
                <mxCell id="14" value="γ" style="edgeLabel;html=1;align=center;verticalAlign=middle;resizable=0;points=[];fontColor=#000000;labelBackgroundColor=none;" parent="13" vertex="1" connectable="0">
                    <mxGeometry x="-0.0067" y="-1" relative="1" as="geometry">
                        <mxPoint x="23.64" y="18.89" as="offset"/>
                    </mxGeometry>
                </mxCell>
                <mxCell id="32" value="" style="group;fontColor=#000000;labelBackgroundColor=none;" parent="1" vertex="1" connectable="0">
                    <mxGeometry x="210" y="50.00000000000001" width="195" height="210" as="geometry"/>
                </mxCell>
                <mxCell id="19" value="2. 若 y 有一个左子树 β，把 β&lt;br&gt;作为 x 的父级。" style="text;html=1;align=left;verticalAlign=middle;resizable=0;points=[];autosize=1;fontSize=14;sketch=1;fontColor=#000000;labelBackgroundColor=none;" parent="32" vertex="1">
                    <mxGeometry x="-5" y="170" width="200" height="40" as="geometry"/>
                </mxCell>
                <mxCell id="20" value="x" style="ellipse;whiteSpace=wrap;html=1;aspect=fixed;sketch=1;fillColor=#1ba1e2;strokeColor=#006EAF;fontSize=20;fontColor=#000000;labelBackgroundColor=none;" parent="32" vertex="1">
                    <mxGeometry x="40" y="20.000000000000007" width="40" height="40" as="geometry"/>
                </mxCell>
                <mxCell id="21" value="" style="endArrow=none;html=1;exitX=0.5;exitY=0;exitDx=0;exitDy=0;sketch=1;fontColor=#000000;labelBackgroundColor=none;fillColor=#1ba1e2;strokeColor=#006EAF;" parent="32" source="20" edge="1">
                    <mxGeometry x="30" width="50" height="50" as="geometry">
                        <mxPoint x="50" y="10.000000000000007" as="sourcePoint"/>
                        <mxPoint x="60" as="targetPoint"/>
                    </mxGeometry>
                </mxCell>
                <mxCell id="22" value="p" style="edgeLabel;html=1;align=center;verticalAlign=middle;resizable=0;points=[];fontColor=#000000;labelBackgroundColor=none;" parent="21" vertex="1" connectable="0">
                    <mxGeometry x="-0.0067" y="-1" relative="1" as="geometry">
                        <mxPoint x="-1" y="-26" as="offset"/>
                    </mxGeometry>
                </mxCell>
                <mxCell id="23" value="" style="endArrow=none;html=1;exitX=0;exitY=1;exitDx=0;exitDy=0;sketch=1;fontColor=#000000;labelBackgroundColor=none;fillColor=#1ba1e2;strokeColor=#006EAF;" parent="32" source="20" edge="1">
                    <mxGeometry x="30" width="50" height="50" as="geometry">
                        <mxPoint x="-20" y="80" as="sourcePoint"/>
                        <mxPoint x="30" y="70" as="targetPoint"/>
                    </mxGeometry>
                </mxCell>
                <mxCell id="24" value="α" style="edgeLabel;html=1;align=center;verticalAlign=middle;resizable=0;points=[];fontColor=#000000;labelBackgroundColor=none;" parent="23" vertex="1" connectable="0">
                    <mxGeometry x="-0.0067" y="-1" relative="1" as="geometry">
                        <mxPoint x="-17.47" y="18.89" as="offset"/>
                    </mxGeometry>
                </mxCell>
                <mxCell id="26" value="y" style="ellipse;whiteSpace=wrap;html=1;aspect=fixed;sketch=1;fillColor=#1ba1e2;strokeColor=#006EAF;fontSize=20;fontColor=#000000;labelBackgroundColor=none;" parent="32" vertex="1">
                    <mxGeometry x="110" y="70.35999999999999" width="40" height="40" as="geometry"/>
                </mxCell>
                <mxCell id="27" value="" style="endArrow=none;html=1;exitX=1;exitY=1;exitDx=0;exitDy=0;sketch=1;fontColor=#000000;labelBackgroundColor=none;fillColor=#1ba1e2;strokeColor=#006EAF;" parent="32" source="20" edge="1">
                    <mxGeometry x="30" width="50" height="50" as="geometry">
                        <mxPoint x="99.99786437626904" y="120.00213562373096" as="sourcePoint"/>
                        <mxPoint x="90" y="80" as="targetPoint"/>
                    </mxGeometry>
                </mxCell>
                <mxCell id="28" value="β" style="edgeLabel;html=1;align=center;verticalAlign=middle;resizable=0;points=[];fontColor=#000000;labelBackgroundColor=none;" parent="27" vertex="1" connectable="0">
                    <mxGeometry x="-0.0067" y="-1" relative="1" as="geometry">
                        <mxPoint x="18.759999999999998" y="18.09" as="offset"/>
                    </mxGeometry>
                </mxCell>
                <mxCell id="29" value="" style="endArrow=none;html=1;exitX=1;exitY=1;exitDx=0;exitDy=0;sketch=1;fontColor=#000000;labelBackgroundColor=none;fillColor=#1ba1e2;strokeColor=#006EAF;" parent="32" source="26" edge="1">
                    <mxGeometry x="40" y="-9.64" width="50" height="50" as="geometry">
                        <mxPoint x="215.85786437626905" y="130.36213562373098" as="sourcePoint"/>
                        <mxPoint x="170" y="130.36" as="targetPoint"/>
                    </mxGeometry>
                </mxCell>
                <mxCell id="30" value="γ" style="edgeLabel;html=1;align=center;verticalAlign=middle;resizable=0;points=[];fontColor=#000000;labelBackgroundColor=none;" parent="29" vertex="1" connectable="0">
                    <mxGeometry x="-0.0067" y="-1" relative="1" as="geometry">
                        <mxPoint x="23.64" y="18.89" as="offset"/>
                    </mxGeometry>
                </mxCell>
                <mxCell id="34" value="" style="group;fontColor=#000000;labelBackgroundColor=none;" parent="1" vertex="1" connectable="0">
                    <mxGeometry x="500" y="50.00000000000001" width="310" height="210" as="geometry"/>
                </mxCell>
                <mxCell id="35" value="3. 若 x 的父级为 null，则把 y 作为树的 root；否则：&lt;br&gt;4. 若 x 是 p 的左孩子，则把 y 作为 p 左孩子；&lt;br&gt;5. 否则，把 y 作为 p 的右孩子。" style="text;html=1;align=left;verticalAlign=middle;resizable=0;points=[];autosize=1;fontSize=14;sketch=0;labelBackgroundColor=none;fontColor=#000000;" parent="34" vertex="1">
                    <mxGeometry x="-30" y="150" width="340" height="60" as="geometry"/>
                </mxCell>
                <mxCell id="36" value="x" style="ellipse;whiteSpace=wrap;html=1;aspect=fixed;sketch=1;fillColor=#1ba1e2;strokeColor=#006EAF;fontSize=20;fontColor=#000000;labelBackgroundColor=none;" parent="34" vertex="1">
                    <mxGeometry x="19.98" y="70.36000000000001" width="40" height="40" as="geometry"/>
                </mxCell>
                <mxCell id="37" value="" style="endArrow=none;html=1;sketch=1;fontColor=#000000;labelBackgroundColor=none;fillColor=#1ba1e2;strokeColor=#006EAF;" parent="34" edge="1">
                    <mxGeometry x="50" y="30.36" width="50" height="50" as="geometry">
                        <mxPoint x="120" y="70.35999999999999" as="sourcePoint"/>
                        <mxPoint x="120" y="39.99999999999999" as="targetPoint"/>
                    </mxGeometry>
                </mxCell>
                <mxCell id="38" value="p" style="edgeLabel;html=1;align=center;verticalAlign=middle;resizable=0;points=[];fontColor=#000000;labelBackgroundColor=none;" parent="37" vertex="1" connectable="0">
                    <mxGeometry x="-0.0067" y="-1" relative="1" as="geometry">
                        <mxPoint x="-1" y="-26" as="offset"/>
                    </mxGeometry>
                </mxCell>
                <mxCell id="39" value="" style="endArrow=none;html=1;exitX=0;exitY=1;exitDx=0;exitDy=0;sketch=1;fontColor=#000000;labelBackgroundColor=none;fillColor=#1ba1e2;strokeColor=#006EAF;" parent="34" source="36" edge="1">
                    <mxGeometry x="9.98" y="50.36" width="50" height="50" as="geometry">
                        <mxPoint x="-40.019999999999996" y="130.36" as="sourcePoint"/>
                        <mxPoint x="9.98" y="120.36" as="targetPoint"/>
                    </mxGeometry>
                </mxCell>
                <mxCell id="40" value="α" style="edgeLabel;html=1;align=center;verticalAlign=middle;resizable=0;points=[];fontColor=#000000;labelBackgroundColor=none;" parent="39" vertex="1" connectable="0">
                    <mxGeometry x="-0.0067" y="-1" relative="1" as="geometry">
                        <mxPoint x="-17.47" y="18.89" as="offset"/>
                    </mxGeometry>
                </mxCell>
                <mxCell id="41" value="y" style="ellipse;whiteSpace=wrap;html=1;aspect=fixed;sketch=1;fillColor=#1ba1e2;strokeColor=#006EAF;fontSize=20;fontColor=#000000;labelBackgroundColor=none;" parent="34" vertex="1">
                    <mxGeometry x="100" y="70.35999999999999" width="40" height="40" as="geometry"/>
                </mxCell>
                <mxCell id="42" value="" style="endArrow=none;html=1;exitX=1;exitY=1;exitDx=0;exitDy=0;sketch=1;fontColor=#000000;labelBackgroundColor=none;fillColor=#1ba1e2;strokeColor=#006EAF;" parent="34" source="36" edge="1">
                    <mxGeometry x="9.98" y="50.36" width="50" height="50" as="geometry">
                        <mxPoint x="79.97786437626904" y="170.36213562373098" as="sourcePoint"/>
                        <mxPoint x="69.98" y="130.36" as="targetPoint"/>
                    </mxGeometry>
                </mxCell>
                <mxCell id="43" value="β" style="edgeLabel;html=1;align=center;verticalAlign=middle;resizable=0;points=[];fontColor=#000000;labelBackgroundColor=none;" parent="42" vertex="1" connectable="0">
                    <mxGeometry x="-0.0067" y="-1" relative="1" as="geometry">
                        <mxPoint x="18.759999999999998" y="18.09" as="offset"/>
                    </mxGeometry>
                </mxCell>
                <mxCell id="44" value="" style="endArrow=none;html=1;exitX=1;exitY=1;exitDx=0;exitDy=0;sketch=1;fontColor=#000000;labelBackgroundColor=none;fillColor=#1ba1e2;strokeColor=#006EAF;" parent="34" source="41" edge="1">
                    <mxGeometry x="30" y="-9.64" width="50" height="50" as="geometry">
                        <mxPoint x="205.85786437626905" y="130.36213562373098" as="sourcePoint"/>
                        <mxPoint x="160" y="130.36" as="targetPoint"/>
                    </mxGeometry>
                </mxCell>
                <mxCell id="45" value="γ" style="edgeLabel;html=1;align=center;verticalAlign=middle;resizable=0;points=[];fontColor=#000000;labelBackgroundColor=none;" parent="44" vertex="1" connectable="0">
                    <mxGeometry x="-0.0067" y="-1" relative="1" as="geometry">
                        <mxPoint x="23.64" y="18.89" as="offset"/>
                    </mxGeometry>
                </mxCell>
                <mxCell id="46" value="" style="group;rotatable=1;fontColor=#000000;labelBackgroundColor=none;" parent="1" vertex="1" connectable="0">
                    <mxGeometry x="110" y="280" width="130" height="189.29" as="geometry"/>
                </mxCell>
                <mxCell id="47" value="6. 把 y 作为 x 的父级" style="text;html=1;align=center;verticalAlign=middle;resizable=0;points=[];autosize=1;fontSize=14;sketch=1;fontColor=#000000;labelBackgroundColor=none;" parent="46" vertex="1">
                    <mxGeometry x="-60" y="169.29" width="140" height="20" as="geometry"/>
                </mxCell>
                <mxCell id="48" value="y" style="ellipse;whiteSpace=wrap;html=1;aspect=fixed;sketch=1;fillColor=#1ba1e2;strokeColor=#006EAF;fontSize=20;fontColor=#000000;labelBackgroundColor=none;" parent="46" vertex="1">
                    <mxGeometry x="10" y="20.000000000000007" width="40" height="40" as="geometry"/>
                </mxCell>
                <mxCell id="49" value="" style="endArrow=none;html=1;exitX=0.5;exitY=0;exitDx=0;exitDy=0;sketch=1;fontColor=#000000;labelBackgroundColor=none;fillColor=#1ba1e2;strokeColor=#006EAF;" parent="46" source="48" edge="1">
                    <mxGeometry width="50" height="50" as="geometry">
                        <mxPoint x="20" y="10.000000000000007" as="sourcePoint"/>
                        <mxPoint x="30" as="targetPoint"/>
                    </mxGeometry>
                </mxCell>
                <mxCell id="50" value="p" style="edgeLabel;html=1;align=center;verticalAlign=middle;resizable=0;points=[];fontColor=#000000;labelBackgroundColor=none;" parent="49" vertex="1" connectable="0">
                    <mxGeometry x="-0.0067" y="-1" relative="1" as="geometry">
                        <mxPoint x="-1" y="-26" as="offset"/>
                    </mxGeometry>
                </mxCell>
                <mxCell id="51" value="" style="endArrow=none;html=1;sketch=1;fontColor=#000000;labelBackgroundColor=none;fillColor=#1ba1e2;strokeColor=#006EAF;" parent="46" edge="1">
                    <mxGeometry width="50" height="50" as="geometry">
                        <mxPoint x="50" y="54" as="sourcePoint"/>
                        <mxPoint x="80" y="90" as="targetPoint"/>
                    </mxGeometry>
                </mxCell>
                <mxCell id="52" value="γ" style="edgeLabel;html=1;align=center;verticalAlign=middle;resizable=0;points=[];fontColor=#000000;labelBackgroundColor=none;" parent="51" vertex="1" connectable="0">
                    <mxGeometry x="-0.0067" y="-1" relative="1" as="geometry">
                        <mxPoint x="25.83" y="27.43" as="offset"/>
                    </mxGeometry>
                </mxCell>
                <mxCell id="53" value="" style="endArrow=none;html=1;exitX=0;exitY=1;exitDx=0;exitDy=0;sketch=1;entryX=1;entryY=0;entryDx=0;entryDy=0;fontColor=#000000;labelBackgroundColor=none;fillColor=#1ba1e2;strokeColor=#006EAF;" parent="46" source="48" target="54" edge="1">
                    <mxGeometry width="50" height="50" as="geometry">
                        <mxPoint x="95.85786437626905" y="64.14213562373095" as="sourcePoint"/>
                        <mxPoint x="70" y="80" as="targetPoint"/>
                    </mxGeometry>
                </mxCell>
                <mxCell id="54" value="x" style="ellipse;whiteSpace=wrap;html=1;aspect=fixed;sketch=1;fillColor=#1ba1e2;strokeColor=#006EAF;fontSize=20;fontColor=#000000;labelBackgroundColor=none;" parent="46" vertex="1">
                    <mxGeometry x="-44.72" y="90" width="40" height="40" as="geometry"/>
                </mxCell>
                <mxCell id="55" value="" style="endArrow=none;html=1;exitX=0;exitY=1;exitDx=0;exitDy=0;sketch=1;fontColor=#000000;labelBackgroundColor=none;fillColor=#1ba1e2;strokeColor=#006EAF;" parent="46" source="54" edge="1">
                    <mxGeometry x="-114.72" y="10" width="50" height="50" as="geometry">
                        <mxPoint x="-44.72213562373096" y="130.00213562373096" as="sourcePoint"/>
                        <mxPoint x="-64.72" y="150" as="targetPoint"/>
                    </mxGeometry>
                </mxCell>
                <mxCell id="56" value="α" style="edgeLabel;html=1;align=center;verticalAlign=middle;resizable=0;points=[];fontColor=#000000;labelBackgroundColor=none;" parent="55" vertex="1" connectable="0">
                    <mxGeometry x="-0.0067" y="-1" relative="1" as="geometry">
                        <mxPoint x="-17.47" y="18.89" as="offset"/>
                    </mxGeometry>
                </mxCell>
                <mxCell id="57" value="" style="endArrow=none;html=1;exitX=1;exitY=1;exitDx=0;exitDy=0;sketch=1;fontColor=#000000;labelBackgroundColor=none;fillColor=#1ba1e2;strokeColor=#006EAF;" parent="46" source="54" edge="1">
                    <mxGeometry x="-114.72" y="10" width="50" height="50" as="geometry">
                        <mxPoint x="61.13786437626905" y="150.00213562373096" as="sourcePoint"/>
                        <mxPoint x="15.280000000000001" y="150" as="targetPoint"/>
                    </mxGeometry>
                </mxCell>
                <mxCell id="58" value="β" style="edgeLabel;html=1;align=center;verticalAlign=middle;resizable=0;points=[];fontColor=#000000;labelBackgroundColor=none;" parent="57" vertex="1" connectable="0">
                    <mxGeometry x="-0.0067" y="-1" relative="1" as="geometry">
                        <mxPoint x="23.64" y="18.89" as="offset"/>
                    </mxGeometry>
                </mxCell>
            </root>
        </mxGraphModel>
    </diagram>
</mxfile>